<mxfile host="app.diagrams.net" agent="Mozilla/5.0 (Windows NT 10.0; Win64; x64) AppleWebKit/537.36 (KHTML, like Gecko) Chrome/135.0.0.0 Safari/537.36" version="26.2.9">
  <diagram name="Pagina-1" id="ELMQ19Qlg_344IisIe3Q">
    <mxGraphModel dx="1044" dy="562" grid="1" gridSize="10" guides="1" tooltips="1" connect="1" arrows="1" fold="1" page="1" pageScale="1" pageWidth="827" pageHeight="1169" math="0" shadow="0">
      <root>
        <mxCell id="0" />
        <mxCell id="1" parent="0" />
        <mxCell id="zbhDOBiwLv9gxsGc5Ieh-1" value="Giocatore" style="swimlane;fontStyle=0;childLayout=stackLayout;horizontal=1;startSize=26;fillColor=none;horizontalStack=0;resizeParent=1;resizeParentMax=0;resizeLast=0;collapsible=1;marginBottom=0;whiteSpace=wrap;html=1;" parent="1" vertex="1">
          <mxGeometry x="40" y="170" width="140" height="312" as="geometry" />
        </mxCell>
        <mxCell id="zbhDOBiwLv9gxsGc5Ieh-3" value="nome= str" style="text;strokeColor=none;fillColor=none;align=left;verticalAlign=top;spacingLeft=4;spacingRight=4;overflow=hidden;rotatable=0;points=[[0,0.5],[1,0.5]];portConstraint=eastwest;whiteSpace=wrap;html=1;" parent="zbhDOBiwLv9gxsGc5Ieh-1" vertex="1">
          <mxGeometry y="26" width="140" height="26" as="geometry" />
        </mxCell>
        <mxCell id="zbhDOBiwLv9gxsGc5Ieh-4" value="&lt;div&gt;ruolo= str&lt;/div&gt;" style="text;strokeColor=none;fillColor=none;align=left;verticalAlign=top;spacingLeft=4;spacingRight=4;overflow=hidden;rotatable=0;points=[[0,0.5],[1,0.5]];portConstraint=eastwest;whiteSpace=wrap;html=1;" parent="zbhDOBiwLv9gxsGc5Ieh-1" vertex="1">
          <mxGeometry y="52" width="140" height="26" as="geometry" />
        </mxCell>
        <mxCell id="zbhDOBiwLv9gxsGc5Ieh-21" value="voti= int" style="text;strokeColor=none;fillColor=none;align=left;verticalAlign=top;spacingLeft=4;spacingRight=4;overflow=hidden;rotatable=0;points=[[0,0.5],[1,0.5]];portConstraint=eastwest;whiteSpace=wrap;html=1;" parent="zbhDOBiwLv9gxsGc5Ieh-1" vertex="1">
          <mxGeometry y="78" width="140" height="26" as="geometry" />
        </mxCell>
        <mxCell id="zbhDOBiwLv9gxsGc5Ieh-22" value="assist= int" style="text;strokeColor=none;fillColor=none;align=left;verticalAlign=top;spacingLeft=4;spacingRight=4;overflow=hidden;rotatable=0;points=[[0,0.5],[1,0.5]];portConstraint=eastwest;whiteSpace=wrap;html=1;" parent="zbhDOBiwLv9gxsGc5Ieh-1" vertex="1">
          <mxGeometry y="104" width="140" height="26" as="geometry" />
        </mxCell>
        <mxCell id="zbhDOBiwLv9gxsGc5Ieh-23" value="gol= int" style="text;strokeColor=none;fillColor=none;align=left;verticalAlign=top;spacingLeft=4;spacingRight=4;overflow=hidden;rotatable=0;points=[[0,0.5],[1,0.5]];portConstraint=eastwest;whiteSpace=wrap;html=1;" parent="zbhDOBiwLv9gxsGc5Ieh-1" vertex="1">
          <mxGeometry y="130" width="140" height="26" as="geometry" />
        </mxCell>
        <mxCell id="zbhDOBiwLv9gxsGc5Ieh-24" value="autogol= int" style="text;strokeColor=none;fillColor=none;align=left;verticalAlign=top;spacingLeft=4;spacingRight=4;overflow=hidden;rotatable=0;points=[[0,0.5],[1,0.5]];portConstraint=eastwest;whiteSpace=wrap;html=1;" parent="zbhDOBiwLv9gxsGc5Ieh-1" vertex="1">
          <mxGeometry y="156" width="140" height="26" as="geometry" />
        </mxCell>
        <mxCell id="zbhDOBiwLv9gxsGc5Ieh-25" value="cartellini_gialli= int" style="text;strokeColor=none;fillColor=none;align=left;verticalAlign=top;spacingLeft=4;spacingRight=4;overflow=hidden;rotatable=0;points=[[0,0.5],[1,0.5]];portConstraint=eastwest;whiteSpace=wrap;html=1;" parent="zbhDOBiwLv9gxsGc5Ieh-1" vertex="1">
          <mxGeometry y="182" width="140" height="26" as="geometry" />
        </mxCell>
        <mxCell id="zbhDOBiwLv9gxsGc5Ieh-26" value="cartellini_rossi= int" style="text;strokeColor=none;fillColor=none;align=left;verticalAlign=top;spacingLeft=4;spacingRight=4;overflow=hidden;rotatable=0;points=[[0,0.5],[1,0.5]];portConstraint=eastwest;whiteSpace=wrap;html=1;" parent="zbhDOBiwLv9gxsGc5Ieh-1" vertex="1">
          <mxGeometry y="208" width="140" height="26" as="geometry" />
        </mxCell>
        <mxCell id="zbhDOBiwLv9gxsGc5Ieh-27" value="porta_inviolata= int" style="text;strokeColor=none;fillColor=none;align=left;verticalAlign=top;spacingLeft=4;spacingRight=4;overflow=hidden;rotatable=0;points=[[0,0.5],[1,0.5]];portConstraint=eastwest;whiteSpace=wrap;html=1;" parent="zbhDOBiwLv9gxsGc5Ieh-1" vertex="1">
          <mxGeometry y="234" width="140" height="26" as="geometry" />
        </mxCell>
        <mxCell id="zbhDOBiwLv9gxsGc5Ieh-28" value="calcola_punteggio()" style="text;strokeColor=none;fillColor=none;align=left;verticalAlign=top;spacingLeft=4;spacingRight=4;overflow=hidden;rotatable=0;points=[[0,0.5],[1,0.5]];portConstraint=eastwest;whiteSpace=wrap;html=1;" parent="zbhDOBiwLv9gxsGc5Ieh-1" vertex="1">
          <mxGeometry y="260" width="140" height="26" as="geometry" />
        </mxCell>
        <mxCell id="eV6kDtaZ0IduC853Nnhn-9" value="" style="endArrow=none;html=1;rounded=0;exitX=0.009;exitY=0.054;exitDx=0;exitDy=0;exitPerimeter=0;entryX=0.997;entryY=0.023;entryDx=0;entryDy=0;entryPerimeter=0;" edge="1" parent="zbhDOBiwLv9gxsGc5Ieh-1" source="zbhDOBiwLv9gxsGc5Ieh-28" target="zbhDOBiwLv9gxsGc5Ieh-28">
          <mxGeometry width="50" height="50" relative="1" as="geometry">
            <mxPoint x="220" y="150" as="sourcePoint" />
            <mxPoint x="270" y="100" as="targetPoint" />
          </mxGeometry>
        </mxCell>
        <mxCell id="eV6kDtaZ0IduC853Nnhn-13" value="visualizza_giocatore()" style="text;strokeColor=none;fillColor=none;align=left;verticalAlign=top;spacingLeft=4;spacingRight=4;overflow=hidden;rotatable=0;points=[[0,0.5],[1,0.5]];portConstraint=eastwest;whiteSpace=wrap;html=1;" vertex="1" parent="zbhDOBiwLv9gxsGc5Ieh-1">
          <mxGeometry y="286" width="140" height="26" as="geometry" />
        </mxCell>
        <mxCell id="zbhDOBiwLv9gxsGc5Ieh-5" value="Squadra" style="swimlane;fontStyle=0;childLayout=stackLayout;horizontal=1;startSize=26;fillColor=none;horizontalStack=0;resizeParent=1;resizeParentMax=0;resizeLast=0;collapsible=1;marginBottom=0;whiteSpace=wrap;html=1;" parent="1" vertex="1">
          <mxGeometry x="244" y="170" width="176" height="182" as="geometry" />
        </mxCell>
        <mxCell id="zbhDOBiwLv9gxsGc5Ieh-6" value="nome= str" style="text;strokeColor=none;fillColor=none;align=left;verticalAlign=top;spacingLeft=4;spacingRight=4;overflow=hidden;rotatable=0;points=[[0,0.5],[1,0.5]];portConstraint=eastwest;whiteSpace=wrap;html=1;" parent="zbhDOBiwLv9gxsGc5Ieh-5" vertex="1">
          <mxGeometry y="26" width="176" height="26" as="geometry" />
        </mxCell>
        <mxCell id="zbhDOBiwLv9gxsGc5Ieh-7" value="giocatori= list" style="text;strokeColor=none;fillColor=none;align=left;verticalAlign=top;spacingLeft=4;spacingRight=4;overflow=hidden;rotatable=0;points=[[0,0.5],[1,0.5]];portConstraint=eastwest;whiteSpace=wrap;html=1;" parent="zbhDOBiwLv9gxsGc5Ieh-5" vertex="1">
          <mxGeometry y="52" width="176" height="26" as="geometry" />
        </mxCell>
        <mxCell id="zbhDOBiwLv9gxsGc5Ieh-8" value="punteggio= int" style="text;strokeColor=none;fillColor=none;align=left;verticalAlign=top;spacingLeft=4;spacingRight=4;overflow=hidden;rotatable=0;points=[[0,0.5],[1,0.5]];portConstraint=eastwest;whiteSpace=wrap;html=1;" parent="zbhDOBiwLv9gxsGc5Ieh-5" vertex="1">
          <mxGeometry y="78" width="176" height="26" as="geometry" />
        </mxCell>
        <mxCell id="zbhDOBiwLv9gxsGc5Ieh-29" value="aggiungi_giocatore(giocatore)" style="text;strokeColor=none;fillColor=none;align=left;verticalAlign=top;spacingLeft=4;spacingRight=4;overflow=hidden;rotatable=0;points=[[0,0.5],[1,0.5]];portConstraint=eastwest;whiteSpace=wrap;html=1;" parent="zbhDOBiwLv9gxsGc5Ieh-5" vertex="1">
          <mxGeometry y="104" width="176" height="26" as="geometry" />
        </mxCell>
        <mxCell id="eV6kDtaZ0IduC853Nnhn-11" value="" style="endArrow=none;html=1;rounded=0;entryX=1.003;entryY=0.115;entryDx=0;entryDy=0;entryPerimeter=0;exitX=0.009;exitY=1.085;exitDx=0;exitDy=0;exitPerimeter=0;" edge="1" parent="zbhDOBiwLv9gxsGc5Ieh-5" source="zbhDOBiwLv9gxsGc5Ieh-8" target="zbhDOBiwLv9gxsGc5Ieh-29">
          <mxGeometry width="50" height="50" relative="1" as="geometry">
            <mxPoint x="16" y="150" as="sourcePoint" />
            <mxPoint x="66" y="100" as="targetPoint" />
          </mxGeometry>
        </mxCell>
        <mxCell id="eV6kDtaZ0IduC853Nnhn-14" value="rimuovi_giocatore(giocatore)" style="text;strokeColor=none;fillColor=none;align=left;verticalAlign=top;spacingLeft=4;spacingRight=4;overflow=hidden;rotatable=0;points=[[0,0.5],[1,0.5]];portConstraint=eastwest;whiteSpace=wrap;html=1;" vertex="1" parent="zbhDOBiwLv9gxsGc5Ieh-5">
          <mxGeometry y="130" width="176" height="26" as="geometry" />
        </mxCell>
        <mxCell id="eV6kDtaZ0IduC853Nnhn-15" value="visualizza_squadra()" style="text;strokeColor=none;fillColor=none;align=left;verticalAlign=top;spacingLeft=4;spacingRight=4;overflow=hidden;rotatable=0;points=[[0,0.5],[1,0.5]];portConstraint=eastwest;whiteSpace=wrap;html=1;" vertex="1" parent="zbhDOBiwLv9gxsGc5Ieh-5">
          <mxGeometry y="156" width="176" height="26" as="geometry" />
        </mxCell>
        <mxCell id="zbhDOBiwLv9gxsGc5Ieh-9" value="Lega" style="swimlane;fontStyle=0;childLayout=stackLayout;horizontal=1;startSize=26;fillColor=none;horizontalStack=0;resizeParent=1;resizeParentMax=0;resizeLast=0;collapsible=1;marginBottom=0;whiteSpace=wrap;html=1;" parent="1" vertex="1">
          <mxGeometry x="520" y="170" width="140" height="130" as="geometry" />
        </mxCell>
        <mxCell id="zbhDOBiwLv9gxsGc5Ieh-10" value="nome= str" style="text;strokeColor=none;fillColor=none;align=left;verticalAlign=top;spacingLeft=4;spacingRight=4;overflow=hidden;rotatable=0;points=[[0,0.5],[1,0.5]];portConstraint=eastwest;whiteSpace=wrap;html=1;" parent="zbhDOBiwLv9gxsGc5Ieh-9" vertex="1">
          <mxGeometry y="26" width="140" height="26" as="geometry" />
        </mxCell>
        <mxCell id="zbhDOBiwLv9gxsGc5Ieh-11" value="squadre= class" style="text;strokeColor=none;fillColor=none;align=left;verticalAlign=top;spacingLeft=4;spacingRight=4;overflow=hidden;rotatable=0;points=[[0,0.5],[1,0.5]];portConstraint=eastwest;whiteSpace=wrap;html=1;" parent="zbhDOBiwLv9gxsGc5Ieh-9" vertex="1">
          <mxGeometry y="52" width="140" height="26" as="geometry" />
        </mxCell>
        <mxCell id="zbhDOBiwLv9gxsGc5Ieh-12" value="calendario= class&amp;nbsp;" style="text;strokeColor=none;fillColor=none;align=left;verticalAlign=top;spacingLeft=4;spacingRight=4;overflow=hidden;rotatable=0;points=[[0,0.5],[1,0.5]];portConstraint=eastwest;whiteSpace=wrap;html=1;" parent="zbhDOBiwLv9gxsGc5Ieh-9" vertex="1">
          <mxGeometry y="78" width="140" height="26" as="geometry" />
        </mxCell>
        <mxCell id="eV6kDtaZ0IduC853Nnhn-18" value="visualizza_squadre()" style="text;strokeColor=none;fillColor=none;align=left;verticalAlign=top;spacingLeft=4;spacingRight=4;overflow=hidden;rotatable=0;points=[[0,0.5],[1,0.5]];portConstraint=eastwest;whiteSpace=wrap;html=1;" vertex="1" parent="zbhDOBiwLv9gxsGc5Ieh-9">
          <mxGeometry y="104" width="140" height="26" as="geometry" />
        </mxCell>
        <mxCell id="zbhDOBiwLv9gxsGc5Ieh-13" value="Partita" style="swimlane;fontStyle=0;childLayout=stackLayout;horizontal=1;startSize=26;fillColor=none;horizontalStack=0;resizeParent=1;resizeParentMax=0;resizeLast=0;collapsible=1;marginBottom=0;whiteSpace=wrap;html=1;" parent="1" vertex="1">
          <mxGeometry x="250" y="450" width="140" height="104" as="geometry" />
        </mxCell>
        <mxCell id="zbhDOBiwLv9gxsGc5Ieh-14" value="risultato= int" style="text;strokeColor=none;fillColor=none;align=left;verticalAlign=top;spacingLeft=4;spacingRight=4;overflow=hidden;rotatable=0;points=[[0,0.5],[1,0.5]];portConstraint=eastwest;whiteSpace=wrap;html=1;" parent="zbhDOBiwLv9gxsGc5Ieh-13" vertex="1">
          <mxGeometry y="26" width="140" height="26" as="geometry" />
        </mxCell>
        <mxCell id="eV6kDtaZ0IduC853Nnhn-16" value="data=&amp;nbsp; date" style="text;strokeColor=none;fillColor=none;align=left;verticalAlign=top;spacingLeft=4;spacingRight=4;overflow=hidden;rotatable=0;points=[[0,0.5],[1,0.5]];portConstraint=eastwest;whiteSpace=wrap;html=1;" vertex="1" parent="zbhDOBiwLv9gxsGc5Ieh-13">
          <mxGeometry y="52" width="140" height="26" as="geometry" />
        </mxCell>
        <mxCell id="eV6kDtaZ0IduC853Nnhn-12" value="visualizza_risultato()" style="text;strokeColor=none;fillColor=none;align=left;verticalAlign=top;spacingLeft=4;spacingRight=4;overflow=hidden;rotatable=0;points=[[0,0.5],[1,0.5]];portConstraint=eastwest;whiteSpace=wrap;html=1;" vertex="1" parent="zbhDOBiwLv9gxsGc5Ieh-13">
          <mxGeometry y="78" width="140" height="26" as="geometry" />
        </mxCell>
        <mxCell id="zbhDOBiwLv9gxsGc5Ieh-31" value="Calendario" style="swimlane;fontStyle=0;childLayout=stackLayout;horizontal=1;startSize=26;fillColor=none;horizontalStack=0;resizeParent=1;resizeParentMax=0;resizeLast=0;collapsible=1;marginBottom=0;whiteSpace=wrap;html=1;" parent="1" vertex="1">
          <mxGeometry x="520" y="450" width="140" height="78" as="geometry" />
        </mxCell>
        <mxCell id="zbhDOBiwLv9gxsGc5Ieh-32" value="partite= class" style="text;strokeColor=none;fillColor=none;align=left;verticalAlign=top;spacingLeft=4;spacingRight=4;overflow=hidden;rotatable=0;points=[[0,0.5],[1,0.5]];portConstraint=eastwest;whiteSpace=wrap;html=1;" parent="zbhDOBiwLv9gxsGc5Ieh-31" vertex="1">
          <mxGeometry y="26" width="140" height="26" as="geometry" />
        </mxCell>
        <mxCell id="zbhDOBiwLv9gxsGc5Ieh-35" value="visualizza_calendario()" style="text;strokeColor=none;fillColor=none;align=left;verticalAlign=top;spacingLeft=4;spacingRight=4;overflow=hidden;rotatable=0;points=[[0,0.5],[1,0.5]];portConstraint=eastwest;whiteSpace=wrap;html=1;" parent="zbhDOBiwLv9gxsGc5Ieh-31" vertex="1">
          <mxGeometry y="52" width="140" height="26" as="geometry" />
        </mxCell>
        <mxCell id="eV6kDtaZ0IduC853Nnhn-17" value="" style="endArrow=none;html=1;rounded=0;entryX=-0.009;entryY=0.915;entryDx=0;entryDy=0;entryPerimeter=0;exitX=0.991;exitY=0.885;exitDx=0;exitDy=0;exitPerimeter=0;" edge="1" parent="zbhDOBiwLv9gxsGc5Ieh-31" source="zbhDOBiwLv9gxsGc5Ieh-32" target="zbhDOBiwLv9gxsGc5Ieh-32">
          <mxGeometry width="50" height="50" relative="1" as="geometry">
            <mxPoint x="-260" y="-40" as="sourcePoint" />
            <mxPoint x="-210" y="-90" as="targetPoint" />
          </mxGeometry>
        </mxCell>
        <mxCell id="zbhDOBiwLv9gxsGc5Ieh-43" style="edgeStyle=orthogonalEdgeStyle;rounded=0;orthogonalLoop=1;jettySize=auto;html=1;exitX=1;exitY=0.5;exitDx=0;exitDy=0;entryX=0;entryY=0.5;entryDx=0;entryDy=0;endArrow=none;startFill=0;" parent="1" source="zbhDOBiwLv9gxsGc5Ieh-4" target="zbhDOBiwLv9gxsGc5Ieh-7" edge="1">
          <mxGeometry relative="1" as="geometry" />
        </mxCell>
        <mxCell id="zbhDOBiwLv9gxsGc5Ieh-44" style="edgeStyle=orthogonalEdgeStyle;rounded=0;orthogonalLoop=1;jettySize=auto;html=1;exitX=1;exitY=0.5;exitDx=0;exitDy=0;entryX=0;entryY=0.5;entryDx=0;entryDy=0;endArrow=none;startFill=0;" parent="1" source="zbhDOBiwLv9gxsGc5Ieh-7" target="zbhDOBiwLv9gxsGc5Ieh-11" edge="1">
          <mxGeometry relative="1" as="geometry" />
        </mxCell>
        <mxCell id="zbhDOBiwLv9gxsGc5Ieh-49" value="*" style="text;html=1;align=center;verticalAlign=middle;resizable=0;points=[];autosize=1;strokeColor=none;fillColor=none;" parent="1" vertex="1">
          <mxGeometry x="175" y="207" width="30" height="30" as="geometry" />
        </mxCell>
        <mxCell id="zbhDOBiwLv9gxsGc5Ieh-50" value="1" style="text;html=1;align=center;verticalAlign=middle;resizable=0;points=[];autosize=1;strokeColor=none;fillColor=none;" parent="1" vertex="1">
          <mxGeometry x="214" y="207" width="30" height="30" as="geometry" />
        </mxCell>
        <mxCell id="zbhDOBiwLv9gxsGc5Ieh-56" value="1" style="text;html=1;align=center;verticalAlign=middle;resizable=0;points=[];autosize=1;strokeColor=none;fillColor=none;" parent="1" vertex="1">
          <mxGeometry x="530" y="298" width="30" height="30" as="geometry" />
        </mxCell>
        <mxCell id="zbhDOBiwLv9gxsGc5Ieh-57" value="1" style="text;html=1;align=center;verticalAlign=middle;resizable=0;points=[];autosize=1;strokeColor=none;fillColor=none;" parent="1" vertex="1">
          <mxGeometry x="530" y="370" width="30" height="30" as="geometry" />
        </mxCell>
        <mxCell id="zbhDOBiwLv9gxsGc5Ieh-59" value="1..*" style="text;html=1;align=center;verticalAlign=middle;resizable=0;points=[];autosize=1;strokeColor=none;fillColor=none;" parent="1" vertex="1">
          <mxGeometry x="394" y="460" width="40" height="30" as="geometry" />
        </mxCell>
        <mxCell id="zbhDOBiwLv9gxsGc5Ieh-60" value="1" style="text;html=1;align=center;verticalAlign=middle;resizable=0;points=[];autosize=1;strokeColor=none;fillColor=none;" parent="1" vertex="1">
          <mxGeometry x="485" y="470" width="30" height="30" as="geometry" />
        </mxCell>
        <mxCell id="zbhDOBiwLv9gxsGc5Ieh-61" value="1...*" style="text;html=1;align=center;verticalAlign=middle;resizable=0;points=[];autosize=1;strokeColor=none;fillColor=none;" parent="1" vertex="1">
          <mxGeometry x="260" y="420" width="40" height="30" as="geometry" />
        </mxCell>
        <mxCell id="zbhDOBiwLv9gxsGc5Ieh-63" value="*" style="text;html=1;align=center;verticalAlign=middle;resizable=0;points=[];autosize=1;strokeColor=none;fillColor=none;" parent="1" vertex="1">
          <mxGeometry x="260" y="352" width="30" height="30" as="geometry" />
        </mxCell>
        <mxCell id="zbhDOBiwLv9gxsGc5Ieh-64" value="1" style="text;html=1;align=center;verticalAlign=middle;resizable=0;points=[];autosize=1;strokeColor=none;fillColor=none;" parent="1" vertex="1">
          <mxGeometry x="430" y="207" width="30" height="30" as="geometry" />
        </mxCell>
        <mxCell id="zbhDOBiwLv9gxsGc5Ieh-66" value="1..*" style="text;html=1;align=center;verticalAlign=middle;resizable=0;points=[];autosize=1;strokeColor=none;fillColor=none;" parent="1" vertex="1">
          <mxGeometry x="480" y="207" width="40" height="30" as="geometry" />
        </mxCell>
        <mxCell id="eV6kDtaZ0IduC853Nnhn-19" value="" style="endArrow=none;html=1;rounded=0;entryX=0.416;entryY=1.038;entryDx=0;entryDy=0;entryPerimeter=0;exitX=0.5;exitY=0;exitDx=0;exitDy=0;" edge="1" parent="1" source="zbhDOBiwLv9gxsGc5Ieh-13" target="eV6kDtaZ0IduC853Nnhn-15">
          <mxGeometry width="50" height="50" relative="1" as="geometry">
            <mxPoint x="260" y="380" as="sourcePoint" />
            <mxPoint x="310" y="330" as="targetPoint" />
          </mxGeometry>
        </mxCell>
        <mxCell id="eV6kDtaZ0IduC853Nnhn-20" value="" style="endArrow=none;html=1;rounded=0;entryX=-0.014;entryY=0.777;entryDx=0;entryDy=0;entryPerimeter=0;exitX=1.017;exitY=0.838;exitDx=0;exitDy=0;exitPerimeter=0;" edge="1" parent="1" source="zbhDOBiwLv9gxsGc5Ieh-14" target="zbhDOBiwLv9gxsGc5Ieh-32">
          <mxGeometry width="50" height="50" relative="1" as="geometry">
            <mxPoint x="260" y="380" as="sourcePoint" />
            <mxPoint x="310" y="330" as="targetPoint" />
          </mxGeometry>
        </mxCell>
        <mxCell id="eV6kDtaZ0IduC853Nnhn-21" value="" style="endArrow=none;html=1;rounded=0;exitX=0.5;exitY=0;exitDx=0;exitDy=0;" edge="1" parent="1" source="zbhDOBiwLv9gxsGc5Ieh-31">
          <mxGeometry width="50" height="50" relative="1" as="geometry">
            <mxPoint x="260" y="380" as="sourcePoint" />
            <mxPoint x="590" y="303" as="targetPoint" />
          </mxGeometry>
        </mxCell>
      </root>
    </mxGraphModel>
  </diagram>
</mxfile>
